<svg xmlns="http://www.w3.org/2000/svg" xmlns:xlink="http://www.w3.org/1999/xlink" viewBox="0 0 1000 300"><defs><style>.a{fill:url(#a);}.b{fill:url(#b);}.c{fill:url(#c);}.d{fill:url(#d);}.e{fill:#231f20;}</style><linearGradient id="a" x1="51.7" y1="149.36" x2="178.8" y2="149.36" gradientUnits="userSpaceOnUse"><stop offset="0" stop-color="#f3981f"/><stop offset="1" stop-color="#ec6d24"/></linearGradient><linearGradient id="b" x1="295.89" y1="183.91" x2="318.04" y2="183.91" gradientUnits="userSpaceOnUse"><stop offset="0" stop-color="#e99024"/><stop offset="1" stop-color="#e9af21"/></linearGradient><linearGradient id="c" x1="207.23" y1="226.95" x2="265.88" y2="222.76" gradientUnits="userSpaceOnUse"><stop offset="0" stop-color="#eb6a24"/><stop offset="1" stop-color="#ea9823"/></linearGradient><linearGradient id="d" x1="201.93" y1="152.87" x2="260.59" y2="148.68" xlink:href="#c"/></defs><title>logo</title><path class="a" d="M106.55,52.85l-54.85,193h51.69l9-34.28h24.79v34.28H178.8v-193Zm32.17,122.88H117.1l21.62-76.47Z"/><path class="b" d="M318,198.84c0,7.08-5.14,11.71-11.48,11.71H295.89V157.27h0"/><path class="c" d="M206.23,204.63v41.25h49.42c-.45-5.21-2.76-14.79-12.51-26C231.46,206.48,213.29,204.77,206.23,204.63Z"/><path class="d" d="M295.89,132a79.11,79.11,0,0,0-79.11-79.11H206.23V97.76c6.9-.07,32.71.9,46.64,18.48,16.17,20.4,13.24,35.69,13.24,35.69h0c4.78,1.56,7.6,6,7.6,11.34a11.94,11.94,0,0,1-11.93,11.94,12.2,12.2,0,0,1-12.23-11.94c0-5.29,2.5-9.78,7.28-11.34h0s2.25-13.24-12.49-30.16c-12.41-14.25-32.17-15.3-38.11-15.27v89.39c8.31.07,32.22,1.8,45.44,18.47,11.11,14,13.2,25.63,13.43,31.52h30.79Z"/><path class="e" d="M363.49,156.41c2.36,10.39,9.81,14.94,21.78,14.94s17-4.71,17-12.28c0-8.42-5-12.07-22.67-16.19-28.14-6.6-35.1-16.84-35.1-30.8,0-18,13.48-30.27,38-30.27,27.46,0,38.4,14.76,39.88,29.89H399.85c-1.08-6.36-4.6-13.28-17.93-13.28-9.07,0-14.55,3.75-14.55,11.09s4.39,10.11,21.1,14c30.08,7.08,36.67,18.27,36.67,32.85,0,18.89-14.29,31.84-41.62,31.84-26.25,0-40.08-12.92-42.55-31.78Z"/><path class="e" d="M507.82,164.17c0,7.48,0,15.61.15,22.55H486.9c-.3-2.08-.45-6.23-.58-8.95-4.6,7.79-11.46,10.75-21.38,10.75-15.81,0-25.92-9.61-25.92-28.86V109.09H460.5v46.26c0,8.57,2.66,15.66,12,15.66,9.8,0,13.86-5.23,13.86-20.6V109.09h21.5Z"/><path class="e" d="M527.19,129.1c0-6.72,0-13.37-.15-20h20.55c.28,1.89.71,6.22.83,9.25,3.94-5.78,10.18-11,21.57-11,11.16,0,17.3,5.77,20,11.81,4.54-6.35,11.25-11.81,23.92-11.81,13.53,0,24.6,8.31,24.6,28.5v50.93h-21V138.41c0-7-2.54-13.87-11.34-13.87-9.14,0-12.7,5.89-12.7,17.8v44.38H572.46v-47.5c0-8.05-2-14.55-11.16-14.55-8.74,0-12.88,5.37-12.88,18.69v43.36H527.19Z"/><path class="e" d="M681.21,83.31V186.72H658.85V83.31Z"/><path class="e" d="M693.78,109.09h12v-21h21.5v21h15.21v16.16H727.25v38.31c0,5.9,1.8,8.19,8.21,8.19a40,40,0,0,0,4.89-.24v14.78c-4.27,1.45-10.11,1.48-14.45,1.48-15.14,0-20.15-8.1-20.15-21.68V125.25h-12Z"/><path class="e" d="M778.4,83.31v61.62c0,19.84,10.21,25.72,21.36,25.72,12.8,0,20.83-7,20.83-25.72V83.31H843v60.51c0,35.36-20.71,44.37-43.51,44.37-23.34,0-43.45-9.4-43.45-43.94V83.31Z"/><path class="e" d="M882.15,179.85v36.61H860.79V127.8c0-6.28,0-12.49-.15-18.71h20.81a87.52,87.52,0,0,1,.7,9.67c3.33-5.7,10.26-11.47,22.57-11.47,17.43,0,30.92,14.58,30.92,38.67,0,27.39-15.06,42.56-33.87,42.56C890.82,188.52,885.11,184.39,882.15,179.85Zm31.68-33.07c0-14.23-5.76-22.26-16-22.26-12.21,0-16.54,7.84-16.54,23.48,0,14.82,4,23.44,15.62,23.44C908.3,171.44,913.83,162.6,913.83,146.78Z"/></svg>